/* XPM */
static char *tool_hot_first[] = {
/* columns rows colors chars-per-pixel */
"24 24 79 1",
"  c #3c659e",
". c #3e689e",
"X c #3b65a0",
"o c #3e69a3",
"O c #42679d",
"+ c #466b9e",
"@ c #4c6c9c",
"# c #466ea3",
"$ c #486da2",
"% c #4473aa",
"& c #4c74a6",
"* c #4874ab",
"= c #4b7aaf",
"- c #4f7cb1",
"; c #5072a3",
": c #5678a7",
"> c #527caf",
", c #5c7da8",
"< c green",
"1 c #5d80ab",
"2 c #5785b4",
"3 c #5d88b6",
"4 c #6487b0",
"5 c #648db6",
"6 c #678fba",
"7 c #6c8eb5",
"8 c #6593be",
"9 c #6e90b5",
"0 c #6e96bc",
"q c #738aab",
"w c #7b8da9",
"e c #738cb0",
"r c #7294b7",
"t c #729abd",
"y c #7a93b6",
"u c #7e98ba",
"i c #6694c0",
"p c #759cc1",
"a c #7c9fc3",
"s c #74a1c6",
"d c #76a4ca",
"f c #7aa1c3",
"g c #7ba7c9",
"h c #7fa9cb",
"j c #7faed0",
"k c #8694ac",
"l c #879db6",
"z c #8a9db6",
"x c #939daf",
"c c #959fb1",
"v c #8aa1b9",
"b c #9ca4b3",
"n c #a6acb6",
"m c #b2b5ba",
"M c #b8babd",
"N c #87afcd",
"B c #89b2cf",
"V c #84b4d3",
"C c #88b6d5",
"Z c #91abc7",
"A c #97b1cd",
"S c #90bdda",
"D c #a8b6cb",
"F c #92c2dd",
"G c #9cc8e0",
"H c #a0c0d7",
"J c #a6cfe6",
"K c #a6d3e8",
"L c #aad5ea",
"P c #b0cfe2",
"I c #b9dbeb",
"U c #cac8c4",
"Y c #c3dfed",
"T c #c5e1ef",
"R c #cbe2ef",
"E c #d5e4ef",
"W c #d2e7f2",
"Q c #e8f6fa",
"! c #feffff",
/* pixels */
"<<<<<<<<<<<<<<<<<<<<<<<<",
"<<<<<<<<<<<<<<<<<<<<<<<<",
"<<<<<<<<<<<<<<<<<<<<<<<<",
"<<<<<<<<<<<<<<<<<<<<<<<<",
"<<<<zlvz<<<<<<<<<<D<<<<<",
"<<<<7NKp<<<<<<<<<k,<<<<<",
"<<<<rCLa<<<<<<<<wNN<<<<<",
"<<<<9hGt<<<<<<MqBKf<<<<<",
"<<<<7gF0<<<<<nePJS0<<<<<",
"<<<<7sV5<<<<xuWICV5<<<<<",
"<<<<40d><<UkZQYVjd1<<<<<",
"<<<<138><<kA!RVVd8><<<<<",
"<<<<:>3&<<nyETVd83&<<<<<",
"<<<<;*-$<<<mqHSi2>#<<<<<",
"<<<<&#*+<<<<<q68-*#<<<<<",
"<<<<@o%+<<<<<Uw&=%#<<<<<",
"<<<<+X%+<<<<<<<k#%#<<<<<",
"<<<<OX%.<<<<<<<<c+ <<<<<",
"<<<<@ +@<<<<<<<<<b@<<<<<",
"<<<<<<<<<<<<<<<<<<<<<<<<",
"<<<<<<<<<<<<<<<<<<<<<<<<",
"<<<<<<<<<<<<<<<<<<<<<<<<",
"<<<<<<<<<<<<<<<<<<<<<<<<",
"<<<<<<<<<<<<<<<<<<<<<<<<"
};
